Escape From The Planet of The Apes 1971 BluRay1080p DTS-LoNeWoLf

Encoded by Tequila-Bob a.k.a. bobnjeff a.k.a.LoNeWoLf
 
http://www.imdb.com/title/tt0067065/




Users: 6.1/10 (7,781 votes) 70 reviews | Critics: 46 reviews 
The world is shocked by the appearance of two talking chimpanzees, who arrived mysteriously in a U.S. spacecraft. They become the toast of society; but one man believes them to be a threat to the human race. 


Director: Don Taylor
Writers: Paul Dehn, Pierre Boulle (characters creator)
Stars:Roddy McDowall, Kim Hunter and Bradford Dillman  
 
Storyline
Following the events in "Beneath the Planet of the Apes", Cornelius and Zira flee back through time to 20th Century Los Angeles, where they face persecution similar to what Taylor suffered in the future, and discover the origins of the stream of events that will shape their world.

Genres:Sci-Fi 

Rated G

Roddy McDowall  ...  Cornelius  
  Kim Hunter  ...  Zira  
  Bradford Dillman  ...  Dr. Lewis Dixon  
  Natalie Trundy  ...  Dr. Stephanie Branton  
  Eric Braeden  ...  Dr. Otto Hasslein  
  Ricardo Montalban  ...  Armando  
  William Windom  ...  The President  
  Sal Mineo  ...  Milo  
  Albert Salmi  ...  E-1  
  Jason Evers  ...  E-2  
  John Randolph  ...  Commission Chairman  
  Harry Lauter  ...  General Winthrop  
  M. Emmet Walsh  ...  Aide  
  Roy Glenn  ...  Lawyer (as Roy E. Glenn Sr.)  


[img]http://torrent-stats.info/e407/f16e1954.png[/img]

See the full size 1920x816 PNG files at the link below

 
http://s1015.photobucket.com/albums/af279/tequila-bob/Escape%20From%20The%20Planet%20of%20The%20Apes%201971/



Format : Matroska 
File size : 8.04 GiB 
Duration : 1h 37mn 
Overall bit rate : 11.8 Mbps 
Encoded date : UTC 2010-11-25 02:53:30 
Writing application : mkvmerge v4.4.0 ('Die Wiederkehr') built on Oct 31 2010 21:52:48 
Writing library : libebml v1.0.0 + libmatroska v1.0.0 

Video 
ID : 1 
Format : AVC 
Format/Info : Advanced Video Codec 
Format profile : High@L4.1 
Format settings, CABAC : Yes 
Format settings, ReFrames : 7 frames 
Muxing mode : Container profile=Unknown@4.1 
Codec ID : V_MPEG4/ISO/AVC 
Duration : 1h 37mn 
Bit rate : 10.2 Mbps 
Width : 1 920 pixels 
Height : 816 pixels 
Display aspect ratio : 2.35:1 
Frame rate : 23.976 fps 
Color space : YUV 
Chroma subsampling : 4:2:0 
Bit depth : 8 bits 
Scan type : Progressive 
Bits/(Pixel*Frame) : 0.270 
Stream size : 6.85 GiB (85%) 
Writing library : x264 core 98 r1649 c54c47d 
Encoding settings : cabac=1 / ref=8 / deblock=1:0:0 / analyse=0x3:0x133 / me=umh / subme=7 / psy=1 / psy_rd=1.00:0.15 / mixed_ref=1 / me_range=24 / chroma_me=1 / trellis=1 / 8x8dct=1 / cqm=0 / deadzone=21,11 / fast_pskip=1 / chroma_qp_offset=-3 / threads=6 / sliced_threads=0 / nr=0 / decimate=1 / interlaced=0 / constrained_intra=0 / bframes=5 / b_pyramid=1 / b_adapt=1 / b_bias=0 / direct=1 / weightb=1 / weightp=2 / keyint=250 / keyint_min=25 / scenecut=40 / intra_refresh=0 / rc_lookahead=50 / rc=2pass / mbtree=1 / bitrate=10158 / ratetol=1.0 / qcomp=0.60 / qpmin=10 / qpmax=51 / qpstep=4 / cplxblur=20.0 / qblur=0.5 / ip_ratio=1.40 / aq=1:1.50 
Language : English 

Audio 
ID : 2 
Format : DTS 
Format/Info : Digital Theater Systems 
Codec ID : A_DTS 
Duration : 1h 37mn 
Bit rate mode : Constant 
Bit rate : 1 510 Kbps 
Channel(s) : 6 channels 
Channel positions : Front: L C R, Side: L R, LFE 
Sampling rate : 48.0 KHz 
Bit depth : 24 bits 
Video delay : 10ms 
Stream size : 1.03 GiB (13%) 
Title : 3/2+1 
Language : English 

Text #1 
Language : English 
Language : Spanish 
Language : Chinese 
Language : Chinese 
Language : Korean 
Language : Spanish 
Language : Spanish  
Language : French 
Language : French 

Menu   Chapters 26

See the full size 1920x816 PNG files at the link below

 
http://s1015.photobucket.com/albums/af279/tequila-bob/Escape%20From%20The%20Planet%20of%20The%20Apes%201971/
